STARTFONT 2.1
COMMENT 
COMMENT $XFree86$
COMMENT 
COMMENT Copyright 2002 Computing Research Labs, New Mexico State University
COMMENT 
COMMENT Permission is hereby granted, free of charge, to any person
COMMENT obtaining a copy of this software and associated documentation
COMMENT files (the "Software"), to deal in the Software without
COMMENT restriction, including without limitation the rights to use,
COMMENT copy, modify, merge, publish, distribute, sublicense, and/or
COMMENT sell copies of the Software, and to permit persons to whom the
COMMENT Software is furnished to do so, subject to the following
COMMENT conditions:
COMMENT 
COMMENT The above copyright notice and this permission notice shall be
COMMENT included in all copies or substantial portions of the Software.
COMMENT 
COMMENT THE SOFTWARE IS PROVIDED "AS IS", WITHOUT WARRANTY OF ANY KIND,
COMMENT EXPRESS OR IMPLIED, INCLUDING BUT NOT LIMITED TO THE WARRANTIES
COMMENT OF MERCHANTABILITY, FITNESS FOR A PARTICULAR PURPOSE AND
COMMENT NONINFRINGEMENT.  IN NO EVENT SHALL THE COMPUTING RESEARCH LAB
COMMENT OR NEW MEXICO STATE UNIVERSITY BE LIABLE FOR ANY CLAIM, DAMAGES
COMMENT OR OTHER LIABILITY, WHETHER IN AN ACTION OF CONTRACT, TORT OR
COMMENT OTHERWISE, ARISING FROM, OUT OF OR IN CONNECTION WITH THE
COMMENT SOFTWARE OR THE USE OR OTHER DEALINGS IN THE SOFTWARE.
COMMENT 
COMMENT This is a cut down version (intended purely for testing purposes) of the ClearlyU 12 BDF font:
COMMENT FONT -MUTT-ClearlyU-Medium-R-Normal--17-120-100-100-P-123-ISO10646-1
COMMENT It contains only 2 Latin characters U+0056 "V" and U+006E "n".
FONT CU12mod4
SIZE 12 100 100
FONTBOUNDINGBOX 16 16 0 -4
STARTPROPERTIES 24
Uid 271068569
MaxNormalCharWidth 16
MaxConsecutiveFillChars 5
FONT_ASCENT 12
FONT_DESCENT -4
COPYRIGHT "2001 Computing Research Lab, New Mexico State University."
_XMBDFED_INFO "Edited with xmbdfed 4.4."
FOUNDRY "MUTT"
FAMILY_NAME "ClearlyU"
WEIGHT_NAME "Medium"
SLANT "R"
SETWIDTH_NAME "Normal"
ADD_STYLE_NAME ""
PIXEL_SIZE 17
POINT_SIZE 120
RESOLUTION_X 100
RESOLUTION_Y 100
SPACING "P"
AVERAGE_WIDTH 123
CHARSET_REGISTRY "ISO10646"
CHARSET_ENCODING "1"
DEFAULT_CHAR 65533
CAP_HEIGHT 11
X_HEIGHT 7
ENDPROPERTIES
CHARS 2
STARTCHAR uni0056
ENCODING 86
SWIDTH 660 0
DWIDTH 11 0
BBX 11 11 1 0
BITMAP
F1E0
2080
2080
1100
1100
1100
0A00
0A00
0A00
0400
0400
ENDCHAR
STARTCHAR uni006E
ENCODING 110
SWIDTH 480 0
DWIDTH 8 0
BBX 7 7 1 0
BITMAP
F8
44
44
44
44
44
EE
ENDCHAR
ENDFONT
