STARTFONT 2.1
COMMENT 
COMMENT $XFree86$
COMMENT 
COMMENT Copyright 2002 Computing Research Labs, New Mexico State University
COMMENT 
COMMENT Permission is hereby granted, free of charge, to any person
COMMENT obtaining a copy of this software and associated documentation
COMMENT files (the "Software"), to deal in the Software without
COMMENT restriction, including without limitation the rights to use,
COMMENT copy, modify, merge, publish, distribute, sublicense, and/or
COMMENT sell copies of the Software, and to permit persons to whom the
COMMENT Software is furnished to do so, subject to the following
COMMENT conditions:
COMMENT 
COMMENT The above copyright notice and this permission notice shall be
COMMENT included in all copies or substantial portions of the Software.
COMMENT 
COMMENT THE SOFTWARE IS PROVIDED "AS IS", WITHOUT WARRANTY OF ANY KIND,
COMMENT EXPRESS OR IMPLIED, INCLUDING BUT NOT LIMITED TO THE WARRANTIES
COMMENT OF MERCHANTABILITY, FITNESS FOR A PARTICULAR PURPOSE AND
COMMENT NONINFRINGEMENT.  IN NO EVENT SHALL THE COMPUTING RESEARCH LAB
COMMENT OR NEW MEXICO STATE UNIVERSITY BE LIABLE FOR ANY CLAIM, DAMAGES
COMMENT OR OTHER LIABILITY, WHETHER IN AN ACTION OF CONTRACT, TORT OR
COMMENT OTHERWISE, ARISING FROM, OUT OF OR IN CONNECTION WITH THE
COMMENT SOFTWARE OR THE USE OR OTHER DEALINGS IN THE SOFTWARE.
COMMENT 
COMMENT This is a cut down version (intended purely for testing purposes) of the ClearlyU 12 BDF font:
COMMENT FONT -MUTT-ClearlyU-Medium-R-Normal--17-120-100-100-P-123-ISO10646-1
COMMENT It contains 178 Latin characters comprising the ranges U+0020 to U+007E and U+00A0 to U+00FF
COMMENT with the following 13 letters removed: F, D, J, M, P, S, V, X, Z, a, n, l, y
COMMENT U+0044 "D", U+0046 "F", U+004A "J", U+004D "M", U+0050 "P", U+0053 "S", U+0056 "V",
COMMENT U+0058 "X", U+005A "Z", U+0061 "a", U+006C "l", U+006E "n", U+0079 "y".
FONT CU12mod1
SIZE 12 100 100
FONTBOUNDINGBOX 16 16 0 -4
STARTPROPERTIES 24
Uid 271068566
MaxNormalCharWidth 16
MaxConsecutiveFillChars 5
FONT_ASCENT 12
FONT_DESCENT -4
COPYRIGHT "2001 Computing Research Lab, New Mexico State University."
_XMBDFED_INFO "Edited with xmbdfed 4.4."
FOUNDRY "MUTT"
FAMILY_NAME "ClearlyU"
WEIGHT_NAME "Medium"
SLANT "R"
SETWIDTH_NAME "Normal"
ADD_STYLE_NAME ""
PIXEL_SIZE 17
POINT_SIZE 120
RESOLUTION_X 100
RESOLUTION_Y 100
SPACING "P"
AVERAGE_WIDTH 123
CHARSET_REGISTRY "ISO10646"
CHARSET_ENCODING "1"
DEFAULT_CHAR 65533
CAP_HEIGHT 11
X_HEIGHT 7
ENDPROPERTIES
CHARS 178
STARTCHAR uni0020
ENCODING 32
SWIDTH 300 0
DWIDTH 5 0
BBX 0 0 0 0
BITMAP
ENDCHAR
STARTCHAR uni0021
ENCODING 33
SWIDTH 300 0
DWIDTH 5 0
BBX 2 12 1 0
BITMAP
C0
C0
C0
C0
C0
C0
C0
00
00
00
C0
C0
ENDCHAR
STARTCHAR uni0022
ENCODING 34
SWIDTH 420 0
DWIDTH 7 0
BBX 4 5 2 7
BITMAP
90
90
90
90
90
ENDCHAR
STARTCHAR uni0023
ENCODING 35
SWIDTH 720 0
DWIDTH 12 0
BBX 10 15 1 -3
BITMAP
0480
0480
0900
0900
0900
FFC0
1200
1200
1200
FFC0
2400
2400
2400
4800
4800
ENDCHAR
STARTCHAR uni0024
ENCODING 36
SWIDTH 480 0
DWIDTH 8 0
BBX 5 14 1 -1
BITMAP
20
70
A8
A8
A8
A0
60
30
28
A8
A8
A8
70
20
ENDCHAR
STARTCHAR uni0025
ENCODING 37
SWIDTH 840 0
DWIDTH 14 0
BBX 11 13 1 -1
BITMAP
6040
9880
9780
9100
9200
6200
0400
08C0
0920
1120
2120
2120
40C0
ENDCHAR
STARTCHAR uni0026
ENCODING 38
SWIDTH 780 0
DWIDTH 13 0
BBX 10 12 1 0
BITMAP
1800
2400
2400
2400
2800
33C0
3100
5100
8A00
8A00
C440
7B80
ENDCHAR
STARTCHAR uni0027
ENCODING 39
SWIDTH 240 0
DWIDTH 4 0
BBX 1 5 2 7
BITMAP
80
80
80
80
80
ENDCHAR
STARTCHAR uni0028
ENCODING 40
SWIDTH 360 0
DWIDTH 6 0
BBX 4 15 2 -3
BITMAP
10
20
40
40
80
80
80
80
80
80
80
40
40
20
10
ENDCHAR
STARTCHAR uni0029
ENCODING 41
SWIDTH 360 0
DWIDTH 6 0
BBX 4 15 1 -3
BITMAP
80
40
20
20
10
10
10
10
10
10
10
20
20
40
80
ENDCHAR
STARTCHAR uni002A
ENCODING 42
SWIDTH 420 0
DWIDTH 7 0
BBX 7 7 0 5
BITMAP
10
92
54
38
54
92
10
ENDCHAR
STARTCHAR uni002B
ENCODING 43
SWIDTH 660 0
DWIDTH 11 0
BBX 9 9 2 -1
BITMAP
0800
0800
0800
0800
FF80
0800
0800
0800
0800
ENDCHAR
STARTCHAR uni002C
ENCODING 44
SWIDTH 300 0
DWIDTH 5 0
BBX 2 5 1 -3
BITMAP
C0
C0
40
40
80
ENDCHAR
STARTCHAR uni002D
ENCODING 45
SWIDTH 420 0
DWIDTH 7 0
BBX 4 1 2 3
BITMAP
F0
ENDCHAR
STARTCHAR uni002E
ENCODING 46
SWIDTH 300 0
DWIDTH 5 0
BBX 2 2 1 0
BITMAP
C0
C0
ENDCHAR
STARTCHAR uni002F
ENCODING 47
SWIDTH 480 0
DWIDTH 8 0
BBX 5 16 2 -4
BITMAP
08
08
10
10
10
10
20
20
20
20
40
40
40
40
80
80
ENDCHAR
STARTCHAR uni0030
ENCODING 48
SWIDTH 420 0
DWIDTH 7 0
BBX 5 11 1 0
BITMAP
70
50
88
88
88
88
88
88
88
50
70
ENDCHAR
STARTCHAR uni0031
ENCODING 49
SWIDTH 420 0
DWIDTH 7 0
BBX 5 11 1 0
BITMAP
20
E0
20
20
20
20
20
20
20
20
F8
ENDCHAR
STARTCHAR uni0032
ENCODING 50
SWIDTH 420 0
DWIDTH 7 0
BBX 5 11 1 0
BITMAP
70
88
88
88
08
10
10
20
48
48
F8
ENDCHAR
STARTCHAR uni0033
ENCODING 51
SWIDTH 420 0
DWIDTH 7 0
BBX 5 11 1 0
BITMAP
70
88
88
08
08
30
08
08
88
88
70
ENDCHAR
STARTCHAR uni0034
ENCODING 52
SWIDTH 540 0
DWIDTH 9 0
BBX 7 11 1 0
BITMAP
18
18
28
28
48
C8
FE
08
08
08
3E
ENDCHAR
STARTCHAR uni0035
ENCODING 53
SWIDTH 420 0
DWIDTH 7 0
BBX 5 11 1 0
BITMAP
88
F0
80
80
F0
C8
08
08
88
90
60
ENDCHAR
STARTCHAR uni0036
ENCODING 54
SWIDTH 420 0
DWIDTH 7 0
BBX 5 11 1 0
BITMAP
30
48
40
80
F0
88
88
88
88
50
70
ENDCHAR
STARTCHAR uni0037
ENCODING 55
SWIDTH 480 0
DWIDTH 8 0
BBX 6 12 1 0
BITMAP
80
FC
84
88
10
10
10
20
20
20
20
20
ENDCHAR
STARTCHAR uni0038
ENCODING 56
SWIDTH 420 0
DWIDTH 7 0
BBX 5 11 1 0
BITMAP
70
88
88
88
50
70
88
88
88
88
70
ENDCHAR
STARTCHAR uni0039
ENCODING 57
SWIDTH 420 0
DWIDTH 7 0
BBX 5 11 1 0
BITMAP
70
50
88
88
88
88
78
08
10
90
60
ENDCHAR
STARTCHAR uni003A
ENCODING 58
SWIDTH 420 0
DWIDTH 7 0
BBX 2 7 3 0
BITMAP
C0
C0
00
00
00
C0
C0
ENDCHAR
STARTCHAR uni003B
ENCODING 59
SWIDTH 300 0
DWIDTH 5 0
BBX 2 10 1 -3
BITMAP
C0
C0
00
00
00
C0
C0
40
40
80
ENDCHAR
STARTCHAR uni003C
ENCODING 60
SWIDTH 360 0
DWIDTH 6 0
BBX 5 9 1 1
BITMAP
08
10
20
40
80
40
20
10
08
ENDCHAR
STARTCHAR uni003D
ENCODING 61
SWIDTH 780 0
DWIDTH 13 0
BBX 10 5 2 2
BITMAP
FFC0
0000
0000
0000
FFC0
ENDCHAR
STARTCHAR uni003E
ENCODING 62
SWIDTH 360 0
DWIDTH 6 0
BBX 5 9 1 1
BITMAP
80
40
20
10
08
10
20
40
80
ENDCHAR
STARTCHAR uni003F
ENCODING 63
SWIDTH 480 0
DWIDTH 8 0
BBX 5 12 1 0
BITMAP
70
88
88
10
20
20
60
00
00
00
60
60
ENDCHAR
STARTCHAR uni0040
ENCODING 64
SWIDTH 720 0
DWIDTH 12 0
BBX 10 12 1 0
BITMAP
1E00
2100
4C80
9340
A140
A140
A140
A140
9340
4D80
20C0
1F00
ENDCHAR
STARTCHAR uni0041
ENCODING 65
SWIDTH 660 0
DWIDTH 11 0
BBX 11 11 0 0
BITMAP
0400
0400
0A00
0A00
0A00
1100
1100
1F00
2080
2080
F1E0
ENDCHAR
STARTCHAR uni0042
ENCODING 66
SWIDTH 600 0
DWIDTH 10 0
BBX 10 11 0 0
BITMAP
FF00
2080
2040
2040
2080
3F00
2080
2040
2040
2080
FF00
ENDCHAR
STARTCHAR uni0043
ENCODING 67
SWIDTH 600 0
DWIDTH 10 0
BBX 9 11 1 0
BITMAP
1E80
2180
4080
8080
8000
8000
8000
8080
4080
2100
1E00
ENDCHAR
STARTCHAR uni0045
ENCODING 69
SWIDTH 600 0
DWIDTH 10 0
BBX 10 11 1 0
BITMAP
FF80
2080
2080
2280
2200
3E00
2240
2240
2080
2080
FF80
ENDCHAR
STARTCHAR uni0047
ENCODING 71
SWIDTH 600 0
DWIDTH 10 0
BBX 10 11 1 0
BITMAP
1E80
2180
4080
8080
8000
8000
83C0
8080
4080
2080
1F80
ENDCHAR
STARTCHAR uni0048
ENCODING 72
SWIDTH 660 0
DWIDTH 11 0
BBX 11 11 1 0
BITMAP
FBE0
2080
2080
2080
2080
3F80
2080
2080
2080
2080
FBE0
ENDCHAR
STARTCHAR uni0049
ENCODING 73
SWIDTH 300 0
DWIDTH 5 0
BBX 5 11 1 0
BITMAP
F8
20
20
20
20
20
20
20
20
20
F8
ENDCHAR
STARTCHAR uni004B
ENCODING 75
SWIDTH 660 0
DWIDTH 11 0
BBX 11 11 1 0
BITMAP
F9E0
2080
2100
2200
2400
2E00
3200
2100
2100
2080
F9E0
ENDCHAR
STARTCHAR uni004C
ENCODING 76
SWIDTH 480 0
DWIDTH 8 0
BBX 8 11 0 0
BITMAP
F8
20
20
20
20
20
21
21
21
23
FF
ENDCHAR
STARTCHAR uni004E
ENCODING 78
SWIDTH 660 0
DWIDTH 11 0
BBX 11 11 1 0
BITMAP
E3E0
3080
3080
2880
2880
2480
2280
2280
2180
2180
F880
ENDCHAR
STARTCHAR uni004F
ENCODING 79
SWIDTH 600 0
DWIDTH 10 0
BBX 10 11 1 0
BITMAP
1E00
2100
4080
8040
8040
8040
8040
8040
4080
2100
1E00
ENDCHAR
STARTCHAR uni0051
ENCODING 81
SWIDTH 600 0
DWIDTH 10 0
BBX 10 14 1 -3
BITMAP
1E00
2100
4080
8040
8040
8040
8040
8040
5C80
3300
1E00
0200
0240
0180
ENDCHAR
STARTCHAR uni0052
ENCODING 82
SWIDTH 660 0
DWIDTH 11 0
BBX 11 11 1 0
BITMAP
FE00
2100
2080
2080
2100
3E00
2300
2100
2100
2100
F8E0
ENDCHAR
STARTCHAR uni0054
ENCODING 84
SWIDTH 540 0
DWIDTH 9 0
BBX 9 11 1 0
BITMAP
FF80
8880
8880
8880
0800
0800
0800
0800
0800
0800
3E00
ENDCHAR
STARTCHAR uni0055
ENCODING 85
SWIDTH 660 0
DWIDTH 11 0
BBX 11 11 1 0
BITMAP
FBE0
2080
2080
2080
2080
2080
2080
2080
2080
1100
0E00
ENDCHAR
STARTCHAR uni0057
ENCODING 87
SWIDTH 960 0
DWIDTH 16 0
BBX 16 11 1 0
BITMAP
F1CF
2184
2184
2244
1248
1248
1248
1428
0C30
0C30
0810
ENDCHAR
STARTCHAR uni0059
ENCODING 89
SWIDTH 660 0
DWIDTH 11 0
BBX 11 11 1 0
BITMAP
F1E0
2080
1100
1100
0A00
0E00
0400
0400
0400
0400
1F00
ENDCHAR
STARTCHAR uni005B
ENCODING 91
SWIDTH 300 0
DWIDTH 5 0
BBX 3 16 1 -4
BITMAP
E0
80
80
80
80
80
80
80
80
80
80
80
80
80
80
E0
ENDCHAR
STARTCHAR uni005C
ENCODING 92
SWIDTH 480 0
DWIDTH 8 0
BBX 5 16 2 -4
BITMAP
80
80
40
40
40
40
20
20
20
20
10
10
10
10
08
08
ENDCHAR
STARTCHAR uni005D
ENCODING 93
SWIDTH 300 0
DWIDTH 5 0
BBX 3 16 0 -4
BITMAP
E0
20
20
20
20
20
20
20
20
20
20
20
20
20
20
E0
ENDCHAR
STARTCHAR uni005E
ENCODING 94
SWIDTH 360 0
DWIDTH 6 0
BBX 5 3 1 9
BITMAP
20
70
88
ENDCHAR
STARTCHAR uni005F
ENCODING 95
SWIDTH 720 0
DWIDTH 12 0
BBX 11 1 1 -2
BITMAP
FFE0
ENDCHAR
STARTCHAR uni0060
ENCODING 96
SWIDTH 360 0
DWIDTH 6 0
BBX 3 4 3 8
BITMAP
80
C0
40
20
ENDCHAR
STARTCHAR uni0062
ENCODING 98
SWIDTH 420 0
DWIDTH 7 0
BBX 6 12 1 0
BITMAP
C0
40
40
40
40
78
44
44
44
44
44
78
ENDCHAR
STARTCHAR uni0063
ENCODING 99
SWIDTH 360 0
DWIDTH 6 0
BBX 5 7 1 0
BITMAP
70
88
80
80
80
88
70
ENDCHAR
STARTCHAR uni0064
ENCODING 100
SWIDTH 420 0
DWIDTH 7 0
BBX 6 12 1 0
BITMAP
18
08
08
08
08
78
88
88
88
88
88
7C
ENDCHAR
STARTCHAR uni0065
ENCODING 101
SWIDTH 360 0
DWIDTH 6 0
BBX 5 7 1 0
BITMAP
70
88
F8
80
80
88
70
ENDCHAR
STARTCHAR uni0066
ENCODING 102
SWIDTH 360 0
DWIDTH 6 0
BBX 5 12 1 0
BITMAP
38
48
40
40
40
F0
40
40
40
40
40
E0
ENDCHAR
STARTCHAR uni0067
ENCODING 103
SWIDTH 480 0
DWIDTH 8 0
BBX 7 11 1 -4
BITMAP
3E
44
44
44
78
40
7C
82
82
82
7C
ENDCHAR
STARTCHAR uni0068
ENCODING 104
SWIDTH 480 0
DWIDTH 8 0
BBX 7 12 1 0
BITMAP
C0
40
40
40
40
78
44
44
44
44
44
EE
ENDCHAR
STARTCHAR uni0069
ENCODING 105
SWIDTH 240 0
DWIDTH 4 0
BBX 3 11 1 0
BITMAP
C0
C0
00
00
C0
40
40
40
40
40
E0
ENDCHAR
STARTCHAR uni006A
ENCODING 106
SWIDTH 300 0
DWIDTH 5 0
BBX 4 14 0 -3
BITMAP
30
30
00
00
30
10
10
10
10
10
10
10
90
E0
ENDCHAR
STARTCHAR uni006B
ENCODING 107
SWIDTH 480 0
DWIDTH 8 0
BBX 7 12 1 0
BITMAP
C0
40
40
40
40
5E
48
50
70
58
48
EE
ENDCHAR
STARTCHAR uni006D
ENCODING 109
SWIDTH 720 0
DWIDTH 12 0
BBX 11 7 1 0
BITMAP
FB80
4440
4440
4440
4440
4440
EEE0
ENDCHAR
STARTCHAR uni006F
ENCODING 111
SWIDTH 360 0
DWIDTH 6 0
BBX 5 7 1 0
BITMAP
70
88
88
88
88
88
70
ENDCHAR
STARTCHAR uni0070
ENCODING 112
SWIDTH 420 0
DWIDTH 7 0
BBX 6 10 1 -3
BITMAP
F8
44
44
44
44
44
78
40
40
E0
ENDCHAR
STARTCHAR uni0071
ENCODING 113
SWIDTH 420 0
DWIDTH 7 0
BBX 6 10 1 -3
BITMAP
78
88
88
88
88
88
78
08
08
1C
ENDCHAR
STARTCHAR uni0072
ENCODING 114
SWIDTH 360 0
DWIDTH 6 0
BBX 5 7 1 0
BITMAP
D0
68
40
40
40
40
F0
ENDCHAR
STARTCHAR uni0073
ENCODING 115
SWIDTH 360 0
DWIDTH 6 0
BBX 5 7 1 0
BITMAP
78
88
80
70
08
88
F0
ENDCHAR
STARTCHAR uni0074
ENCODING 116
SWIDTH 420 0
DWIDTH 7 0
BBX 6 10 1 0
BITMAP
20
20
20
F8
20
20
20
24
24
18
ENDCHAR
STARTCHAR uni0075
ENCODING 117
SWIDTH 480 0
DWIDTH 8 0
BBX 7 7 1 0
BITMAP
CC
44
44
44
44
44
3E
ENDCHAR
STARTCHAR uni0076
ENCODING 118
SWIDTH 540 0
DWIDTH 9 0
BBX 8 7 1 0
BITMAP
E7
24
24
24
18
18
18
ENDCHAR
STARTCHAR uni0077
ENCODING 119
SWIDTH 660 0
DWIDTH 11 0
BBX 11 7 0 0
BITMAP
EEE0
2480
2A80
2A80
2A80
1B00
1100
ENDCHAR
STARTCHAR uni0078
ENCODING 120
SWIDTH 540 0
DWIDTH 9 0
BBX 8 7 1 0
BITMAP
E7
24
18
18
18
24
E7
ENDCHAR
STARTCHAR uni007A
ENCODING 122
SWIDTH 360 0
DWIDTH 6 0
BBX 5 7 1 0
BITMAP
F8
90
90
20
48
48
F8
ENDCHAR
STARTCHAR uni007B
ENCODING 123
SWIDTH 360 0
DWIDTH 6 0
BBX 5 16 1 -4
BITMAP
18
20
20
20
20
20
20
C0
20
20
20
20
20
20
20
18
ENDCHAR
STARTCHAR uni007C
ENCODING 124
SWIDTH 180 0
DWIDTH 3 0
BBX 1 16 2 -4
BITMAP
80
80
80
80
80
80
80
80
80
80
80
80
80
80
80
80
ENDCHAR
STARTCHAR uni007D
ENCODING 125
SWIDTH 300 0
DWIDTH 5 0
BBX 5 16 0 -4
BITMAP
C0
20
20
20
20
20
20
18
20
20
20
20
20
20
20
C0
ENDCHAR
STARTCHAR uni007E
ENCODING 126
SWIDTH 480 0
DWIDTH 8 0
BBX 5 3 1 9
BITMAP
48
A8
90
ENDCHAR
STARTCHAR uni00A0
ENCODING 160
SWIDTH 300 0
DWIDTH 5 0
BBX 0 0 0 0
BITMAP
ENDCHAR
STARTCHAR uni00A1
ENCODING 161
SWIDTH 300 0
DWIDTH 5 0
BBX 2 12 1 -3
BITMAP
C0
C0
00
00
00
C0
C0
C0
C0
C0
C0
C0
ENDCHAR
STARTCHAR uni00A2
ENCODING 162
SWIDTH 420 0
DWIDTH 7 0
BBX 5 11 1 -2
BITMAP
10
10
70
A8
A0
A0
A0
C8
70
40
40
ENDCHAR
STARTCHAR uni00A3
ENCODING 163
SWIDTH 540 0
DWIDTH 9 0
BBX 8 12 1 0
BITMAP
06
09
11
10
10
7C
10
10
10
51
B2
CC
ENDCHAR
STARTCHAR uni00A4
ENCODING 164
SWIDTH 540 0
DWIDTH 9 0
BBX 7 7 1 3
BITMAP
82
7C
44
44
44
7C
82
ENDCHAR
STARTCHAR uni00A5
ENCODING 165
SWIDTH 720 0
DWIDTH 12 0
BBX 11 11 0 0
BITMAP
F1E0
2080
1100
0A00
7FC0
0E00
0400
7FC0
0400
0400
1F00
ENDCHAR
STARTCHAR uni00A6
ENCODING 166
SWIDTH 180 0
DWIDTH 3 0
BBX 1 16 2 -4
BITMAP
80
80
80
80
80
80
80
00
00
80
80
80
80
80
80
80
ENDCHAR
STARTCHAR uni00A7
ENCODING 167
SWIDTH 360 0
DWIDTH 6 0
BBX 4 13 1 0
BITMAP
60
90
80
80
60
90
90
90
60
10
10
90
60
ENDCHAR
STARTCHAR uni00A8
ENCODING 168
SWIDTH 360 0
DWIDTH 6 0
BBX 5 2 1 11
BITMAP
D8
D8
ENDCHAR
STARTCHAR uni00A9
ENCODING 169
SWIDTH 600 0
DWIDTH 10 0
BBX 9 10 1 3
BITMAP
3E00
4100
9E80
A280
A280
A080
A280
9C80
4100
3E00
ENDCHAR
STARTCHAR uni00AA
ENCODING 170
SWIDTH 300 0
DWIDTH 5 0
BBX 4 6 1 7
BITMAP
60
10
70
90
70
F0
ENDCHAR
STARTCHAR uni00AB
ENCODING 171
SWIDTH 540 0
DWIDTH 9 0
BBX 7 7 1 0
BITMAP
12
24
6C
D8
6C
24
12
ENDCHAR
STARTCHAR uni00AC
ENCODING 172
SWIDTH 480 0
DWIDTH 8 0
BBX 6 4 1 2
BITMAP
FC
04
04
04
ENDCHAR
STARTCHAR uni00AD
ENCODING 173
SWIDTH 300 0
DWIDTH 5 0
BBX 3 1 0 3
BITMAP
E0
ENDCHAR
STARTCHAR uni00AE
ENCODING 174
SWIDTH 600 0
DWIDTH 10 0
BBX 9 10 1 3
BITMAP
3E00
4100
BC80
9280
9280
9C80
9280
BA80
4100
3E00
ENDCHAR
STARTCHAR uni00AF
ENCODING 175
SWIDTH 420 0
DWIDTH 7 0
BBX 5 1 1 11
BITMAP
F8
ENDCHAR
STARTCHAR uni00B0
ENCODING 176
SWIDTH 360 0
DWIDTH 6 0
BBX 4 4 2 8
BITMAP
60
90
90
60
ENDCHAR
STARTCHAR uni00B1
ENCODING 177
SWIDTH 540 0
DWIDTH 9 0
BBX 7 9 2 1
BITMAP
10
10
10
FE
10
10
10
00
FE
ENDCHAR
STARTCHAR uni00B2
ENCODING 178
SWIDTH 300 0
DWIDTH 5 0
BBX 4 7 1 6
BITMAP
60
90
10
10
20
40
F0
ENDCHAR
STARTCHAR uni00B3
ENCODING 179
SWIDTH 300 0
DWIDTH 5 0
BBX 4 7 1 6
BITMAP
60
90
10
20
10
90
60
ENDCHAR
STARTCHAR uni00B4
ENCODING 180
SWIDTH 360 0
DWIDTH 6 0
BBX 3 4 3 11
BITMAP
20
60
40
80
ENDCHAR
STARTCHAR uni00B5
ENCODING 181
SWIDTH 480 0
DWIDTH 8 0
BBX 7 10 1 -3
BITMAP
88
88
88
88
88
DA
A4
80
80
80
ENDCHAR
STARTCHAR uni00B6
ENCODING 182
SWIDTH 480 0
DWIDTH 8 0
BBX 7 15 1 -4
BITMAP
3E
74
F4
F4
F4
74
34
14
14
14
14
14
14
14
14
ENDCHAR
STARTCHAR uni00B7
ENCODING 183
SWIDTH 240 0
DWIDTH 4 0
BBX 2 2 2 5
BITMAP
C0
C0
ENDCHAR
STARTCHAR uni00B8
ENCODING 184
SWIDTH 420 0
DWIDTH 7 0
BBX 3 3 2 -3
BITMAP
40
20
E0
ENDCHAR
STARTCHAR uni00B9
ENCODING 185
SWIDTH 240 0
DWIDTH 4 0
BBX 3 7 1 6
BITMAP
40
C0
40
40
40
40
E0
ENDCHAR
STARTCHAR uni00BA
ENCODING 186
SWIDTH 300 0
DWIDTH 5 0
BBX 4 6 1 7
BITMAP
60
90
90
90
60
F0
ENDCHAR
STARTCHAR uni00BB
ENCODING 187
SWIDTH 480 0
DWIDTH 8 0
BBX 7 7 1 0
BITMAP
90
48
6C
36
6C
48
90
ENDCHAR
STARTCHAR uni00BC
ENCODING 188
SWIDTH 720 0
DWIDTH 12 0
BBX 11 11 1 0
BITMAP
4000
C400
4400
4400
4440
E8C0
0940
0A40
0BE0
1040
10E0
ENDCHAR
STARTCHAR uni00BD
ENCODING 189
SWIDTH 720 0
DWIDTH 12 0
BBX 11 11 1 0
BITMAP
4000
C400
4400
4400
4400
E8C0
0920
0820
0840
1080
11E0
ENDCHAR
STARTCHAR uni00BE
ENCODING 190
SWIDTH 780 0
DWIDTH 13 0
BBX 12 11 1 0
BITMAP
6000
9200
1200
2200
1220
9460
64A0
0520
05F0
0820
0870
ENDCHAR
STARTCHAR uni00BF
ENCODING 191
SWIDTH 480 0
DWIDTH 8 0
BBX 5 12 1 -3
BITMAP
30
30
00
00
00
30
20
20
40
80
88
70
ENDCHAR
STARTCHAR uni00C0
ENCODING 192
SWIDTH 660 0
DWIDTH 11 0
BBX 11 16 0 0
BITMAP
0800
0C00
0400
0200
0000
0400
0400
0A00
0A00
0A00
1100
1100
1F00
2080
2080
F1E0
ENDCHAR
STARTCHAR uni00C1
ENCODING 193
SWIDTH 660 0
DWIDTH 11 0
BBX 11 16 0 0
BITMAP
0200
0600
0400
0800
0000
0400
0400
0A00
0A00
0A00
1100
1100
1F00
2080
2080
F1E0
ENDCHAR
STARTCHAR uni00C2
ENCODING 194
SWIDTH 660 0
DWIDTH 11 0
BBX 11 15 0 0
BITMAP
0400
0E00
1100
0000
0400
0400
0A00
0A00
0A00
1100
1100
1F00
2080
2080
F1E0
ENDCHAR
STARTCHAR uni00C3
ENCODING 195
SWIDTH 660 0
DWIDTH 11 0
BBX 11 15 0 0
BITMAP
0900
1500
1200
0000
0400
0400
0A00
0A00
0A00
1100
1100
1F00
2080
2080
F1E0
ENDCHAR
STARTCHAR uni00C4
ENCODING 196
SWIDTH 660 0
DWIDTH 11 0
BBX 11 14 0 0
BITMAP
1B00
1B00
0000
0400
0400
0A00
0A00
0A00
1100
1100
1F00
2080
2080
F1E0
ENDCHAR
STARTCHAR uni00C5
ENCODING 197
SWIDTH 660 0
DWIDTH 11 0
BBX 11 15 0 0
BITMAP
0600
0900
0900
0600
0400
0400
0A00
0A00
0A00
1100
1100
1F00
2080
2080
F1E0
ENDCHAR
STARTCHAR uni00C6
ENCODING 198
SWIDTH 900 0
DWIDTH 15 0
BBX 14 11 0 0
BITMAP
0FF8
0A18
0A08
0A28
1220
1FE0
1224
1224
2208
2208
F7F8
ENDCHAR
STARTCHAR uni00C7
ENCODING 199
SWIDTH 600 0
DWIDTH 10 0
BBX 9 14 1 -3
BITMAP
1E80
2180
4080
8080
8000
8000
8000
8080
4080
2100
1E00
0800
0400
1C00
ENDCHAR
STARTCHAR uni00C8
ENCODING 200
SWIDTH 660 0
DWIDTH 11 0
BBX 10 16 0 0
BITMAP
1000
1800
0800
0400
0000
FF80
2080
2080
2280
2200
3E00
2240
2240
2080
2080
FF80
ENDCHAR
STARTCHAR uni00C9
ENCODING 201
SWIDTH 660 0
DWIDTH 11 0
BBX 10 16 0 0
BITMAP
0400
0C00
0800
1000
0000
FF80
2080
2080
2280
2200
3E00
2240
2240
2080
2080
FF80
ENDCHAR
STARTCHAR uni00CA
ENCODING 202
SWIDTH 660 0
DWIDTH 11 0
BBX 10 15 0 0
BITMAP
0800
1C00
2200
0000
FF80
2080
2080
2280
2200
3E00
2240
2240
2080
2080
FF80
ENDCHAR
STARTCHAR uni00CB
ENCODING 203
SWIDTH 660 0
DWIDTH 11 0
BBX 10 14 0 0
BITMAP
3600
3600
0000
FF80
2080
2080
2280
2200
3E00
2240
2240
2080
2080
FF80
ENDCHAR
STARTCHAR uni00CC
ENCODING 204
SWIDTH 360 0
DWIDTH 6 0
BBX 5 16 1 0
BITMAP
40
60
20
10
00
F8
20
20
20
20
20
20
20
20
20
F8
ENDCHAR
STARTCHAR uni00CD
ENCODING 205
SWIDTH 360 0
DWIDTH 6 0
BBX 5 16 1 0
BITMAP
10
30
20
40
00
F8
20
20
20
20
20
20
20
20
20
F8
ENDCHAR
STARTCHAR uni00CE
ENCODING 206
SWIDTH 360 0
DWIDTH 6 0
BBX 5 15 1 0
BITMAP
20
70
88
00
F8
20
20
20
20
20
20
20
20
20
F8
ENDCHAR
STARTCHAR uni00CF
ENCODING 207
SWIDTH 360 0
DWIDTH 6 0
BBX 5 14 1 0
BITMAP
D8
D8
00
F8
20
20
20
20
20
20
20
20
20
F8
ENDCHAR
STARTCHAR uni00D0
ENCODING 208
SWIDTH 660 0
DWIDTH 11 0
BBX 10 11 0 0
BITMAP
FE00
2180
2080
2040
2040
F840
2040
2040
2080
2180
FE00
ENDCHAR
STARTCHAR uni00D1
ENCODING 209
SWIDTH 720 0
DWIDTH 12 0
BBX 11 15 0 0
BITMAP
0900
1500
1200
0000
E3E0
3080
3080
2880
2880
2480
2280
2280
2180
2180
F880
ENDCHAR
STARTCHAR uni00D2
ENCODING 210
SWIDTH 720 0
DWIDTH 12 0
BBX 10 16 1 0
BITMAP
1000
1800
0800
0400
0000
1E00
2100
4080
8040
8040
8040
8040
8040
4080
2100
1E00
ENDCHAR
STARTCHAR uni00D3
ENCODING 211
SWIDTH 720 0
DWIDTH 12 0
BBX 10 16 1 0
BITMAP
0200
0600
0400
0800
0000
1E00
2100
4080
8040
8040
8040
8040
8040
4080
2100
1E00
ENDCHAR
STARTCHAR uni00D4
ENCODING 212
SWIDTH 720 0
DWIDTH 12 0
BBX 10 15 1 0
BITMAP
0800
1C00
2200
0000
1E00
2100
4080
8040
8040
8040
8040
8040
4080
2100
1E00
ENDCHAR
STARTCHAR uni00D5
ENCODING 213
SWIDTH 720 0
DWIDTH 12 0
BBX 10 15 1 0
BITMAP
1200
2A00
2400
0000
1E00
2100
4080
8040
8040
8040
8040
8040
4080
2100
1E00
ENDCHAR
STARTCHAR uni00D6
ENCODING 214
SWIDTH 720 0
DWIDTH 12 0
BBX 10 14 1 0
BITMAP
3600
3600
0000
1E00
2100
4080
8040
8040
8040
8040
8040
4080
2100
1E00
ENDCHAR
STARTCHAR uni00D7
ENCODING 215
SWIDTH 540 0
DWIDTH 9 0
BBX 7 7 1 0
BITMAP
82
44
28
10
28
44
82
ENDCHAR
STARTCHAR uni00D8
ENCODING 216
SWIDTH 720 0
DWIDTH 12 0
BBX 10 13 1 -1
BITMAP
0080
1F00
2100
4280
8240
8440
8C40
8840
9040
5080
2100
3E00
4000
ENDCHAR
STARTCHAR uni00D9
ENCODING 217
SWIDTH 720 0
DWIDTH 12 0
BBX 11 16 1 0
BITMAP
0800
0C00
0400
0200
0000
FBE0
2080
2080
2080
2080
2080
2080
2080
2080
1100
0E00
ENDCHAR
STARTCHAR uni00DA
ENCODING 218
SWIDTH 720 0
DWIDTH 12 0
BBX 11 16 1 0
BITMAP
0200
0600
0400
0800
0000
FBE0
2080
2080
2080
2080
2080
2080
2080
2080
1100
0E00
ENDCHAR
STARTCHAR uni00DB
ENCODING 219
SWIDTH 720 0
DWIDTH 12 0
BBX 11 15 1 0
BITMAP
0400
0E00
1100
0000
FBE0
2080
2080
2080
2080
2080
2080
2080
2080
1100
0E00
ENDCHAR
STARTCHAR uni00DC
ENCODING 220
SWIDTH 720 0
DWIDTH 12 0
BBX 11 14 1 0
BITMAP
1B00
1B00
0000
FBE0
2080
2080
2080
2080
2080
2080
2080
2080
1100
0E00
ENDCHAR
STARTCHAR uni00DD
ENCODING 221
SWIDTH 720 0
DWIDTH 12 0
BBX 11 16 0 0
BITMAP
0200
0600
0400
0800
0000
F1E0
2080
1100
1100
0A00
0E00
0400
0400
0400
0400
1F00
ENDCHAR
STARTCHAR uni00DE
ENCODING 222
SWIDTH 600 0
DWIDTH 10 0
BBX 9 11 0 0
BITMAP
F800
2000
3E00
2100
2080
2080
2080
2100
3E00
2000
F800
ENDCHAR
STARTCHAR uni00DF
ENCODING 223
SWIDTH 420 0
DWIDTH 7 0
BBX 6 12 1 0
BITMAP
30
48
48
48
48
D8
48
44
44
44
44
D8
ENDCHAR
STARTCHAR uni00E0
ENCODING 224
SWIDTH 420 0
DWIDTH 7 0
BBX 6 12 1 0
BITMAP
40
60
20
10
00
70
88
08
78
88
88
7C
ENDCHAR
STARTCHAR uni00E1
ENCODING 225
SWIDTH 420 0
DWIDTH 7 0
BBX 6 12 1 0
BITMAP
10
30
20
40
00
70
88
08
78
88
88
7C
ENDCHAR
STARTCHAR uni00E2
ENCODING 226
SWIDTH 420 0
DWIDTH 7 0
BBX 6 11 1 0
BITMAP
20
70
88
00
70
88
08
78
88
88
7C
ENDCHAR
STARTCHAR uni00E3
ENCODING 227
SWIDTH 420 0
DWIDTH 7 0
BBX 6 11 1 0
BITMAP
48
A8
90
00
70
88
08
78
88
88
7C
ENDCHAR
STARTCHAR uni00E4
ENCODING 228
SWIDTH 420 0
DWIDTH 7 0
BBX 6 10 1 0
BITMAP
D8
D8
00
70
88
08
78
88
88
7C
ENDCHAR
STARTCHAR uni00E5
ENCODING 229
SWIDTH 420 0
DWIDTH 7 0
BBX 6 11 1 0
BITMAP
30
48
48
30
70
88
08
78
88
88
7C
ENDCHAR
STARTCHAR uni00E6
ENCODING 230
SWIDTH 660 0
DWIDTH 11 0
BBX 10 7 1 0
BITMAP
7380
8C40
0FC0
7800
8800
8C40
7380
ENDCHAR
STARTCHAR uni00E7
ENCODING 231
SWIDTH 360 0
DWIDTH 6 0
BBX 5 10 1 -3
BITMAP
70
88
80
80
80
88
70
20
10
70
ENDCHAR
STARTCHAR uni00E8
ENCODING 232
SWIDTH 360 0
DWIDTH 6 0
BBX 5 12 1 0
BITMAP
40
60
20
10
00
70
88
F8
80
80
88
70
ENDCHAR
STARTCHAR uni00E9
ENCODING 233
SWIDTH 360 0
DWIDTH 6 0
BBX 5 12 1 0
BITMAP
10
30
20
40
00
70
88
F8
80
80
88
70
ENDCHAR
STARTCHAR uni00EA
ENCODING 234
SWIDTH 360 0
DWIDTH 6 0
BBX 5 11 1 0
BITMAP
20
70
88
00
70
88
F8
80
80
88
70
ENDCHAR
STARTCHAR uni00EB
ENCODING 235
SWIDTH 360 0
DWIDTH 6 0
BBX 5 10 1 0
BITMAP
D8
D8
00
70
88
F8
80
80
88
70
ENDCHAR
STARTCHAR uni00EC
ENCODING 236
SWIDTH 240 0
DWIDTH 4 0
BBX 4 12 0 0
BITMAP
80
C0
40
20
00
60
20
20
20
20
20
70
ENDCHAR
STARTCHAR uni00ED
ENCODING 237
SWIDTH 240 0
DWIDTH 4 0
BBX 4 12 1 0
BITMAP
10
30
20
40
00
C0
40
40
40
40
40
E0
ENDCHAR
STARTCHAR uni00EE
ENCODING 238
SWIDTH 300 0
DWIDTH 5 0
BBX 5 11 0 0
BITMAP
20
70
88
00
60
20
20
20
20
20
70
ENDCHAR
STARTCHAR uni00EF
ENCODING 239
SWIDTH 360 0
DWIDTH 6 0
BBX 5 10 0 0
BITMAP
D8
D8
00
60
20
20
20
20
20
70
ENDCHAR
STARTCHAR uni00F0
ENCODING 240
SWIDTH 360 0
DWIDTH 6 0
BBX 5 12 1 0
BITMAP
50
70
E0
10
10
78
88
88
88
88
88
70
ENDCHAR
STARTCHAR uni00F1
ENCODING 241
SWIDTH 480 0
DWIDTH 8 0
BBX 7 11 1 0
BITMAP
48
A8
90
00
F8
44
44
44
44
44
EE
ENDCHAR
STARTCHAR uni00F2
ENCODING 242
SWIDTH 360 0
DWIDTH 6 0
BBX 5 12 1 0
BITMAP
40
60
20
10
00
70
88
88
88
88
88
70
ENDCHAR
STARTCHAR uni00F3
ENCODING 243
SWIDTH 360 0
DWIDTH 6 0
BBX 5 12 1 0
BITMAP
10
30
20
40
00
70
88
88
88
88
88
70
ENDCHAR
STARTCHAR uni00F4
ENCODING 244
SWIDTH 360 0
DWIDTH 6 0
BBX 5 11 1 0
BITMAP
20
70
88
00
70
88
88
88
88
88
70
ENDCHAR
STARTCHAR uni00F5
ENCODING 245
SWIDTH 360 0
DWIDTH 6 0
BBX 5 11 1 0
BITMAP
48
A8
90
00
70
88
88
88
88
88
70
ENDCHAR
STARTCHAR uni00F6
ENCODING 246
SWIDTH 360 0
DWIDTH 6 0
BBX 5 10 1 0
BITMAP
D8
D8
00
70
88
88
88
88
88
70
ENDCHAR
STARTCHAR uni00F7
ENCODING 247
SWIDTH 660 0
DWIDTH 11 0
BBX 9 7 1 0
BITMAP
0800
0800
0000
FF80
0000
0800
0800
ENDCHAR
STARTCHAR uni00F8
ENCODING 248
SWIDTH 360 0
DWIDTH 6 0
BBX 5 11 1 -2
BITMAP
08
10
70
98
A8
A8
A8
C8
70
40
80
ENDCHAR
STARTCHAR uni00F9
ENCODING 249
SWIDTH 480 0
DWIDTH 8 0
BBX 7 12 1 0
BITMAP
40
60
20
10
00
CC
44
44
44
44
44
3E
ENDCHAR
STARTCHAR uni00FA
ENCODING 250
SWIDTH 480 0
DWIDTH 8 0
BBX 7 12 1 0
BITMAP
08
18
10
20
00
CC
44
44
44
44
44
3E
ENDCHAR
STARTCHAR uni00FB
ENCODING 251
SWIDTH 480 0
DWIDTH 8 0
BBX 7 11 1 0
BITMAP
10
38
44
00
CC
44
44
44
44
44
3E
ENDCHAR
STARTCHAR uni00FC
ENCODING 252
SWIDTH 480 0
DWIDTH 8 0
BBX 7 10 1 0
BITMAP
6C
6C
00
CC
44
44
44
44
44
3E
ENDCHAR
STARTCHAR uni00FD
ENCODING 253
SWIDTH 480 0
DWIDTH 8 0
BBX 8 15 1 -3
BITMAP
04
0C
08
10
00
E7
24
24
24
18
18
18
10
90
E0
ENDCHAR
STARTCHAR uni00FE
ENCODING 254
SWIDTH 420 0
DWIDTH 7 0
BBX 6 15 1 -3
BITMAP
C0
40
40
40
40
78
44
44
44
44
44
78
40
40
E0
ENDCHAR
STARTCHAR uni00FF
ENCODING 255
SWIDTH 480 0
DWIDTH 8 0
BBX 8 13 1 -3
BITMAP
36
36
00
E7
24
24
24
18
18
18
10
90
E0
ENDCHAR
ENDFONT
