STARTFONT 2.1
COMMENT 
COMMENT $XFree86$
COMMENT 
COMMENT Copyright 2002 Computing Research Labs, New Mexico State University
COMMENT 
COMMENT Permission is hereby granted, free of charge, to any person
COMMENT obtaining a copy of this software and associated documentation
COMMENT files (the "Software"), to deal in the Software without
COMMENT restriction, including without limitation the rights to use,
COMMENT copy, modify, merge, publish, distribute, sublicense, and/or
COMMENT sell copies of the Software, and to permit persons to whom the
COMMENT Software is furnished to do so, subject to the following
COMMENT conditions:
COMMENT 
COMMENT The above copyright notice and this permission notice shall be
COMMENT included in all copies or substantial portions of the Software.
COMMENT 
COMMENT THE SOFTWARE IS PROVIDED "AS IS", WITHOUT WARRANTY OF ANY KIND,
COMMENT EXPRESS OR IMPLIED, INCLUDING BUT NOT LIMITED TO THE WARRANTIES
COMMENT OF MERCHANTABILITY, FITNESS FOR A PARTICULAR PURPOSE AND
COMMENT NONINFRINGEMENT.  IN NO EVENT SHALL THE COMPUTING RESEARCH LAB
COMMENT OR NEW MEXICO STATE UNIVERSITY BE LIABLE FOR ANY CLAIM, DAMAGES
COMMENT OR OTHER LIABILITY, WHETHER IN AN ACTION OF CONTRACT, TORT OR
COMMENT OTHERWISE, ARISING FROM, OUT OF OR IN CONNECTION WITH THE
COMMENT SOFTWARE OR THE USE OR OTHER DEALINGS IN THE SOFTWARE.
COMMENT 
COMMENT This is a cut down version (intended purely for testing purposes) of the ClearlyU 12 BDF font:
COMMENT FONT -MUTT-ClearlyU-Medium-R-Normal--17-120-100-100-P-123-ISO10646-1
COMMENT It contains only 4 Latin characters U+0044 "D", U+0050 "P", U+0058 "X" and U+006C "l".
FONT CU12mod3
SIZE 12 100 100
FONTBOUNDINGBOX 16 16 0 -4
STARTPROPERTIES 24
Uid 271068568
MaxNormalCharWidth 16
MaxConsecutiveFillChars 5
FONT_ASCENT 12
FONT_DESCENT -4
COPYRIGHT "2001 Computing Research Lab, New Mexico State University."
_XMBDFED_INFO "Edited with xmbdfed 4.4."
FOUNDRY "MUTT"
FAMILY_NAME "ClearlyU"
WEIGHT_NAME "Medium"
SLANT "R"
SETWIDTH_NAME "Normal"
ADD_STYLE_NAME ""
PIXEL_SIZE 17
POINT_SIZE 120
RESOLUTION_X 100
RESOLUTION_Y 100
SPACING "P"
AVERAGE_WIDTH 123
CHARSET_REGISTRY "ISO10646"
CHARSET_ENCODING "1"
DEFAULT_CHAR 65533
CAP_HEIGHT 11
X_HEIGHT 7
ENDPROPERTIES
CHARS 4
STARTCHAR uni0044
ENCODING 68
SWIDTH 600 0
DWIDTH 10 0
BBX 10 11 0 0
BITMAP
FE00
2180
2080
2040
2040
2040
2040
2040
2080
2180
FE00
ENDCHAR
STARTCHAR uni0050
ENCODING 80
SWIDTH 540 0
DWIDTH 9 0
BBX 9 11 1 0
BITMAP
FF00
2180
2080
2080
2180
3F00
2000
2000
2000
2000
F800
ENDCHAR
STARTCHAR uni0058
ENCODING 88
SWIDTH 660 0
DWIDTH 11 0
BBX 11 11 1 0
BITMAP
F3C0
1100
1200
0A00
0C00
0400
0A00
1A00
1100
2080
F1E0
ENDCHAR
STARTCHAR uni006C
ENCODING 108
SWIDTH 240 0
DWIDTH 4 0
BBX 3 12 1 0
BITMAP
C0
40
40
40
40
40
40
40
40
40
40
E0
ENDCHAR
ENDFONT
