STARTFONT 2.1
COMMENT 
COMMENT $XFree86$
COMMENT 
COMMENT Copyright 2002 Computing Research Labs, New Mexico State University
COMMENT 
COMMENT Permission is hereby granted, free of charge, to any person
COMMENT obtaining a copy of this software and associated documentation
COMMENT files (the "Software"), to deal in the Software without
COMMENT restriction, including without limitation the rights to use,
COMMENT copy, modify, merge, publish, distribute, sublicense, and/or
COMMENT sell copies of the Software, and to permit persons to whom the
COMMENT Software is furnished to do so, subject to the following
COMMENT conditions:
COMMENT 
COMMENT The above copyright notice and this permission notice shall be
COMMENT included in all copies or substantial portions of the Software.
COMMENT 
COMMENT THE SOFTWARE IS PROVIDED "AS IS", WITHOUT WARRANTY OF ANY KIND,
COMMENT EXPRESS OR IMPLIED, INCLUDING BUT NOT LIMITED TO THE WARRANTIES
COMMENT OF MERCHANTABILITY, FITNESS FOR A PARTICULAR PURPOSE AND
COMMENT NONINFRINGEMENT.  IN NO EVENT SHALL THE COMPUTING RESEARCH LAB
COMMENT OR NEW MEXICO STATE UNIVERSITY BE LIABLE FOR ANY CLAIM, DAMAGES
COMMENT OR OTHER LIABILITY, WHETHER IN AN ACTION OF CONTRACT, TORT OR
COMMENT OTHERWISE, ARISING FROM, OUT OF OR IN CONNECTION WITH THE
COMMENT SOFTWARE OR THE USE OR OTHER DEALINGS IN THE SOFTWARE.
COMMENT 
COMMENT This is a cut down version (intended purely for testing purposes) of the ClearlyU 12 BDF font:
COMMENT FONT -MUTT-ClearlyU-Medium-R-Normal--17-120-100-100-P-123-ISO10646-1
COMMENT It contains 7 Latin characters U+0046 "F", U+004A "J", U+004D "M", U+0053 "S", U+005A "Z", U+0061 "a" and U+0079 "y".
FONT CU12mod2
SIZE 12 100 100
FONTBOUNDINGBOX 16 16 0 -4
STARTPROPERTIES 24
Uid 271068567
MaxNormalCharWidth 16
MaxConsecutiveFillChars 5
FONT_ASCENT 12
FONT_DESCENT -4
COPYRIGHT "2001 Computing Research Lab, New Mexico State University."
_XMBDFED_INFO "Edited with xmbdfed 4.4."
FOUNDRY "MUTT"
FAMILY_NAME "ClearlyU"
WEIGHT_NAME "Medium"
SLANT "R"
SETWIDTH_NAME "Normal"
ADD_STYLE_NAME ""
PIXEL_SIZE 17
POINT_SIZE 120
RESOLUTION_X 100
RESOLUTION_Y 100
SPACING "P"
AVERAGE_WIDTH 123
CHARSET_REGISTRY "ISO10646"
CHARSET_ENCODING "1"
DEFAULT_CHAR 65533
CAP_HEIGHT 11
X_HEIGHT 7
ENDPROPERTIES
CHARS 7
STARTCHAR uni0046
ENCODING 70
SWIDTH 540 0
DWIDTH 9 0
BBX 9 11 1 0
BITMAP
FF80
2080
2080
2280
2200
3E00
2200
2200
2000
2000
F800
ENDCHAR
STARTCHAR uni004A
ENCODING 74
SWIDTH 360 0
DWIDTH 6 0
BBX 6 11 1 0
BITMAP
7C
10
10
10
10
10
10
10
10
90
E0
ENDCHAR
STARTCHAR uni004D
ENCODING 77
SWIDTH 840 0
DWIDTH 14 0
BBX 14 11 1 0
BITMAP
F03C
3030
3030
2850
2850
2890
2490
2490
2310
2310
FB7C
ENDCHAR
STARTCHAR uni0053
ENCODING 83
SWIDTH 420 0
DWIDTH 7 0
BBX 6 11 1 0
BITMAP
7C
84
84
80
40
30
08
04
84
84
F8
ENDCHAR
STARTCHAR uni005A
ENCODING 90
SWIDTH 420 0
DWIDTH 7 0
BBX 7 11 1 0
BITMAP
FE
C4
84
88
08
10
22
22
42
46
FE
ENDCHAR
STARTCHAR uni0061
ENCODING 97
SWIDTH 420 0
DWIDTH 7 0
BBX 6 7 1 0
BITMAP
70
88
08
78
88
88
7C
ENDCHAR
STARTCHAR uni0079
ENCODING 121
SWIDTH 480 0
DWIDTH 8 0
BBX 8 10 1 -3
BITMAP
E7
24
24
24
18
18
18
10
90
E0
ENDCHAR
ENDFONT
