STARTFONT 2.1
COMMENT Transformed from cp1252 to Unicode ordering
COMMENT Transformed from SYMBIAN FSC to EPOC BDF format
COMMENT Original font file name: calc18.fsc
FONT calc18
SIZE 18 72 72
FONTBOUNDINGBOX 11 18 0 -4
STARTPROPERTIES 6
Uid 268435494
MaxNormalCharWidth 12
MaxConsecutiveFillChars 5
FONT_ASCENT 14
FONT_DESCENT 4
COPYRIGHT "Copyright (c) 1999 Symbian Ltd."
ENDPROPERTIES
CHARS 4
STARTCHAR C44
ENCODING 44
SWIDTH 167 0
DWIDTH 3 0
BBX 3 7 0 2
BITMAP
40
E0
E0
60
20
40
80
ENDCHAR
STARTCHAR C46
ENCODING 46
SWIDTH 167 0
DWIDTH 3 0
BBX 3 4 0 4
BITMAP
40
E0
E0
40
ENDCHAR
STARTCHAR C112
ENCODING 112
SWIDTH 667 0
DWIDTH 12 0
BBX 11 10 0 0
BITMAP
7FE0
FFE0
9100
1100
1100
1100
3100
2120
61A0
60C0
ENDCHAR
STARTCHAR C214
ENCODING 214
SWIDTH 556 0
DWIDTH 10 0
BBX 9 14 0 0
BITMAP
0080
0080
0080
0080
0100
0100
6100
A100
1200
1200
0A00
0A00
0600
0400
ENDCHAR
ENDFONT
