STARTFONT 2.1
COMMENT Transformed from cp1252 to Unicode ordering
COMMENT Transformed from SYMBIAN FSC to EPOC BDF format
COMMENT Original font file name: calcinv.fsc
FONT calcinv
SIZE 14 72 72
FONTBOUNDINGBOX 14 14 0 0
STARTPROPERTIES 6
Uid 268435668
MaxNormalCharWidth 14
MaxConsecutiveFillChars 5
FONT_ASCENT 14
FONT_DESCENT 0
COPYRIGHT "Copyright (c) 1999 Symbian Ltd."
ENDPROPERTIES
CHARS 7
STARTCHAR C42
ENCODING 42
SWIDTH 1000 0
DWIDTH 14 0
BBX 14 14 0 0
BITMAP
FFFC
FFFC
FFFC
F33C
F33C
F87C
E01C
E01C
F87C
F33C
F33C
FFFC
FFFC
FFFC
ENDCHAR
STARTCHAR C43
ENCODING 43
SWIDTH 1000 0
DWIDTH 14 0
BBX 14 14 0 0
BITMAP
FFFC
FFFC
FFFC
FCFC
FCFC
FCFC
E01C
E01C
FCFC
FCFC
FCFC
FFFC
FFFC
FFFC
ENDCHAR
STARTCHAR C47
ENCODING 47
SWIDTH 1000 0
DWIDTH 14 0
BBX 14 14 0 0
BITMAP
FFFC
FFFC
FFFC
FFBC
FF3C
FE7C
FCFC
F9FC
F3FC
E7FC
EFFC
FFFC
FFFC
FFFC
ENDCHAR
STARTCHAR C77
ENCODING 77
SWIDTH 1000 0
DWIDTH 14 0
BBX 14 14 0 0
BITMAP
FFFC
FFFC
CFCC
C78C
C30C
C84C
CCCC
CFCC
CFCC
CFCC
CFCC
CFCC
FFFC
FFFC
ENDCHAR
STARTCHAR C215
ENCODING 215
SWIDTH 1000 0
DWIDTH 14 0
BBX 14 14 0 0
BITMAP
FFFC
FFFC
FFFC
F7BC
E31C
F03C
F87C
F87C
F03C
E31C
F7BC
FFFC
FFFC
FFFC
ENDCHAR
STARTCHAR C247
ENCODING 247
SWIDTH 1000 0
DWIDTH 14 0
BBX 14 14 0 0
BITMAP
FFFC
FFFC
FCFC
FCFC
FFFC
FFFC
E01C
E01C
FFFC
FFFC
FCFC
FCFC
FFFC
FFFC
ENDCHAR
STARTCHAR C150
ENCODING 8211
SWIDTH 1000 0
DWIDTH 14 0
BBX 14 14 0 0
BITMAP
FFFC
FFFC
FFFC
FFFC
FFFC
FFFC
E01C
E01C
FFFC
FFFC
FFFC
FFFC
FFFC
FFFC
ENDCHAR
ENDFONT
