STARTFONT 2.1
COMMENT Transformed from cp1252 to Unicode ordering
COMMENT Transformed from SYMBIAN FSC to EPOC BDF format
COMMENT Original font file name: calc35.fsc
FONT calc35
SIZE 35 72 72
FONTBOUNDINGBOX 13 35 0 0
STARTPROPERTIES 6
Uid 268435495
MaxNormalCharWidth 16
MaxConsecutiveFillChars 5
FONT_ASCENT 35
FONT_DESCENT 0
COPYRIGHT "Copyright (c) 1999 Symbian Ltd."
ENDPROPERTIES
CHARS 15
STARTCHAR C44
ENCODING 44
SWIDTH 229 0
DWIDTH 8 0
BBX 4 6 0 1
BITMAP
F0
F0
F0
30
30
60
ENDCHAR
STARTCHAR C45
ENCODING 45
SWIDTH 457 0
DWIDTH 16 0
BBX 10 3 3 16
BITMAP
7F80
FFC0
7F80
ENDCHAR
STARTCHAR C46
ENCODING 46
SWIDTH 229 0
DWIDTH 8 0
BBX 4 3 0 0
BITMAP
F0
F0
F0
ENDCHAR
STARTCHAR C48
ENCODING 48
SWIDTH 457 0
DWIDTH 16 0
BBX 13 35 0 0
BITMAP
7FF0
BFE8
DFD8
E038
F078
F078
F078
F078
F078
F078
F078
F078
F078
F078
F078
E038
8008
0000
8008
E038
F078
F078
F078
F078
F078
F078
F078
F078
F078
F078
F078
E038
DFD8
BFE8
7FF0
ENDCHAR
STARTCHAR C49
ENCODING 49
SWIDTH 457 0
DWIDTH 16 0
BBX 4 33 9 1
BITMAP
10
30
70
F0
F0
F0
F0
F0
F0
F0
F0
F0
F0
F0
70
10
00
10
70
F0
F0
F0
F0
F0
F0
F0
F0
F0
F0
F0
70
30
10
ENDCHAR
STARTCHAR C50
ENCODING 50
SWIDTH 457 0
DWIDTH 16 0
BBX 13 35 0 0
BITMAP
7FF0
3FE8
1FD8
0038
0078
0078
0078
0078
0078
0078
0078
0078
0078
0078
0078
0018
3FE8
7FF0
BFE0
C000
F000
F000
F000
F000
F000
F000
F000
F000
F000
F000
F000
E000
DFC0
BFE0
7FF0
ENDCHAR
STARTCHAR C51
ENCODING 51
SWIDTH 457 0
DWIDTH 16 0
BBX 12 35 1 0
BITMAP
FFE0
7FD0
3FB0
0070
00F0
00F0
00F0
00F0
00F0
00F0
00F0
00F0
00F0
00F0
0070
0030
7FD0
FFE0
7FD0
0030
0070
00F0
00F0
00F0
00F0
00F0
00F0
00F0
00F0
00F0
00F0
0070
3FB0
7FD0
FFE0
ENDCHAR
STARTCHAR C52
ENCODING 52
SWIDTH 457 0
DWIDTH 16 0
BBX 13 33 0 1
BITMAP
8008
C018
E038
F078
F078
F078
F078
F078
F078
F078
F078
F078
F078
E038
C018
BFE8
7FF0
3FE8
0018
0038
0078
0078
0078
0078
0078
0078
0078
0078
0078
0078
0038
0018
0008
ENDCHAR
STARTCHAR C53
ENCODING 53
SWIDTH 457 0
DWIDTH 16 0
BBX 13 35 0 0
BITMAP
7FF0
BFE0
DFC0
E000
F000
F000
F000
F000
F000
F000
F000
F000
F000
F000
E000
C000
BFE0
7FF0
3FE8
0018
0038
0078
0078
0078
0078
0078
0078
0078
0078
0078
0078
0038
1FD8
3FE8
7FF0
ENDCHAR
STARTCHAR C54
ENCODING 54
SWIDTH 457 0
DWIDTH 16 0
BBX 13 35 0 0
BITMAP
7FF0
BFE0
DFC0
E000
F000
F000
F000
F000
F000
F000
F000
F000
F000
F000
E000
C000
BFE0
7FF0
BFE8
C018
E038
F078
F078
F078
F078
F078
F078
F078
F078
F078
F078
E038
DFD8
BFE8
7FF0
ENDCHAR
STARTCHAR C55
ENCODING 55
SWIDTH 457 0
DWIDTH 16 0
BBX 12 34 1 1
BITMAP
FFE0
7FD0
3FB0
0070
00F0
00F0
00F0
00F0
00F0
00F0
00F0
00F0
00F0
00F0
00F0
0070
0010
0000
0010
0070
00F0
00F0
00F0
00F0
00F0
00F0
00F0
00F0
00F0
00F0
00F0
0070
0030
0010
ENDCHAR
STARTCHAR C56
ENCODING 56
SWIDTH 457 0
DWIDTH 16 0
BBX 13 35 0 0
BITMAP
7FF0
BFE8
DFD8
E038
F078
F078
F078
F078
F078
F078
F078
F078
F078
F078
E038
C018
BFE8
7FF0
BFE8
C018
E038
F078
F078
F078
F078
F078
F078
F078
F078
F078
F078
E038
DFD8
BFE8
7FF0
ENDCHAR
STARTCHAR C57
ENCODING 57
SWIDTH 457 0
DWIDTH 16 0
BBX 13 35 0 0
BITMAP
7FF0
BFE8
DFD8
E038
F078
F078
F078
F078
F078
F078
F078
F078
F078
F078
E038
C018
BFE8
7FF0
3FE8
0018
0038
0078
0078
0078
0078
0078
0078
0078
0078
0078
0078
0038
1FD8
3FE8
7FF0
ENDCHAR
STARTCHAR C58
ENCODING 58
SWIDTH 200 0
DWIDTH 7 0
BBX 4 17 0 9
BITMAP
F0
F0
F0
00
00
00
00
00
00
00
00
00
00
00
F0
F0
F0
ENDCHAR
STARTCHAR C69
ENCODING 69
SWIDTH 457 0
DWIDTH 16 0
BBX 12 35 0 0
BITMAP
7FF0
BFE0
DFC0
E000
F000
F000
F000
F000
F000
F000
F000
F000
F000
F000
E000
C000
BFE0
7FF0
BFE0
C000
E000
F000
F000
F000
F000
F000
F000
F000
F000
F000
F000
E000
DFC0
BFE0
7FF0
ENDCHAR
ENDFONT
