STARTFONT 2.1
COMMENT Transformed from cp1252 to Unicode ordering
COMMENT Transformed from SYMBIAN FSC to EPOC BDF format
COMMENT Original font file name: digit35.fsc
FONT digit35
SIZE 35 72 72
FONTBOUNDINGBOX 10 35 0 0
STARTPROPERTIES 6
Uid 268435752
MaxNormalCharWidth 12
MaxConsecutiveFillChars 5
FONT_ASCENT 35
FONT_DESCENT 0
COPYRIGHT "Copyright (c) 1999 Symbian Ltd."
ENDPROPERTIES
CHARS 13
STARTCHAR C45
ENCODING 45
SWIDTH 343 0
DWIDTH 12 0
BBX 8 3 1 16
BITMAP
7E
FF
7E
ENDCHAR
STARTCHAR C46
ENCODING 46
SWIDTH 171 0
DWIDTH 6 0
BBX 3 3 0 0
BITMAP
E0
E0
E0
ENDCHAR
STARTCHAR C48
ENCODING 48
SWIDTH 343 0
DWIDTH 12 0
BBX 10 35 0 0
BITMAP
7F80
BF40
DEC0
E1C0
E1C0
E1C0
E1C0
E1C0
E1C0
E1C0
E1C0
E1C0
E1C0
E1C0
E1C0
E1C0
8040
0000
8040
E1C0
E1C0
E1C0
E1C0
E1C0
E1C0
E1C0
E1C0
E1C0
E1C0
E1C0
E1C0
E1C0
DEC0
BF40
7F80
ENDCHAR
STARTCHAR C49
ENCODING 49
SWIDTH 343 0
DWIDTH 12 0
BBX 3 33 7 1
BITMAP
20
60
E0
E0
E0
E0
E0
E0
E0
E0
E0
E0
E0
E0
E0
20
00
20
E0
E0
E0
E0
E0
E0
E0
E0
E0
E0
E0
E0
E0
60
20
ENDCHAR
STARTCHAR C50
ENCODING 50
SWIDTH 343 0
DWIDTH 12 0
BBX 10 35 0 0
BITMAP
7F80
3F40
1EC0
01C0
01C0
01C0
01C0
01C0
01C0
01C0
01C0
01C0
01C0
01C0
01C0
00C0
3F40
7F80
BF00
C000
E000
E000
E000
E000
E000
E000
E000
E000
E000
E000
E000
E000
DE00
BF00
7F80
ENDCHAR
STARTCHAR C51
ENCODING 51
SWIDTH 343 0
DWIDTH 12 0
BBX 9 35 1 0
BITMAP
FF00
7E80
3D80
0380
0380
0380
0380
0380
0380
0380
0380
0380
0380
0380
0380
0180
7E80
FF00
7E80
0180
0380
0380
0380
0380
0380
0380
0380
0380
0380
0380
0380
0380
3D80
7E80
FF00
ENDCHAR
STARTCHAR C52
ENCODING 52
SWIDTH 343 0
DWIDTH 12 0
BBX 10 33 0 1
BITMAP
8040
C0C0
E1C0
E1C0
E1C0
E1C0
E1C0
E1C0
E1C0
E1C0
E1C0
E1C0
E1C0
E1C0
C0C0
BF40
7F80
3F40
00C0
01C0
01C0
01C0
01C0
01C0
01C0
01C0
01C0
01C0
01C0
01C0
01C0
00C0
0040
ENDCHAR
STARTCHAR C53
ENCODING 53
SWIDTH 343 0
DWIDTH 12 0
BBX 10 35 0 0
BITMAP
7F80
BF00
DE00
E000
E000
E000
E000
E000
E000
E000
E000
E000
E000
E000
E000
C000
BF00
7F80
3F40
00C0
01C0
01C0
01C0
01C0
01C0
01C0
01C0
01C0
01C0
01C0
01C0
01C0
1EC0
3F40
7F80
ENDCHAR
STARTCHAR C54
ENCODING 54
SWIDTH 343 0
DWIDTH 12 0
BBX 10 35 0 0
BITMAP
7F80
BF00
DE00
E000
E000
E000
E000
E000
E000
E000
E000
E000
E000
E000
E000
C000
BF00
7F80
BF40
C0C0
E1C0
E1C0
E1C0
E1C0
E1C0
E1C0
E1C0
E1C0
E1C0
E1C0
E1C0
E1C0
DEC0
BF40
7F80
ENDCHAR
STARTCHAR C55
ENCODING 55
SWIDTH 343 0
DWIDTH 12 0
BBX 9 34 1 1
BITMAP
FF00
7E80
3D80
0380
0380
0380
0380
0380
0380
0380
0380
0380
0380
0380
0380
0380
0080
0000
0080
0380
0380
0380
0380
0380
0380
0380
0380
0380
0380
0380
0380
0380
0180
0080
ENDCHAR
STARTCHAR C56
ENCODING 56
SWIDTH 343 0
DWIDTH 12 0
BBX 10 35 0 0
BITMAP
7F80
BF40
DEC0
E1C0
E1C0
E1C0
E1C0
E1C0
E1C0
E1C0
E1C0
E1C0
E1C0
E1C0
E1C0
C0C0
BF40
7F80
BF40
C0C0
E1C0
E1C0
E1C0
E1C0
E1C0
E1C0
E1C0
E1C0
E1C0
E1C0
E1C0
E1C0
DEC0
BF40
7F80
ENDCHAR
STARTCHAR C57
ENCODING 57
SWIDTH 343 0
DWIDTH 12 0
BBX 10 35 0 0
BITMAP
7F80
BF40
DEC0
E1C0
E1C0
E1C0
E1C0
E1C0
E1C0
E1C0
E1C0
E1C0
E1C0
E1C0
E1C0
C0C0
BF40
7F80
3F40
00C0
01C0
01C0
01C0
01C0
01C0
01C0
01C0
01C0
01C0
01C0
01C0
01C0
1EC0
3F40
7F80
ENDCHAR
STARTCHAR C58
ENCODING 58
SWIDTH 171 0
DWIDTH 6 0
BBX 3 17 0 9
BITMAP
E0
E0
E0
00
00
00
00
00
00
00
00
00
00
00
E0
E0
E0
ENDCHAR
ENDFONT
