STARTFONT 2.1
COMMENT Test file with 5 code sections each of 5 characters with 
COMMENT breaks between each one
FONT test16
SIZE 16 75 75
FONTBOUNDINGBOX 8 16 0 -2
STARTPROPERTIES 3
Uid 3340
MaxNormalCharWidth 8
MaxConsecutiveFillChars 0
ENDPROPERTIES
CHARS 25
STARTCHAR 10
ENCODING 10
SWIDTH 512 0
DWIDTH 10 0
BBX 8 16 0 -2
BITMAP
ff
ff
ff
ff
ff
ff
ff
ff
ff
ff
ff
ff
ff
ff
ff
ff
ENDCHAR
STARTCHAR 11
ENCODING 11
SWIDTH 512 0
DWIDTH 11 0
BBX 8 16 0 -2
BITMAP
ff
ff
ff
ff
ff
ff
ff
ff
ff
ff
ff
ff
ff
ff
ff
ff
ENDCHAR
STARTCHAR 12
ENCODING 12
SWIDTH 512 0
DWIDTH 12 0
BBX 8 16 0 -2
BITMAP
ff
ff
ff
ff
ff
ff
ff
ff
ff
ff
ff
ff
ff
ff
ff
ff
ENDCHAR
STARTCHAR 13
ENCODING 13
SWIDTH 512 0
DWIDTH 13 0
BBX 8 16 0 -2
BITMAP
ff
ff
ff
ff
ff
ff
ff
ff
ff
ff
ff
ff
ff
ff
ff
ff
ENDCHAR
STARTCHAR 14
ENCODING 14
SWIDTH 512 0
DWIDTH 14 0
BBX 8 16 0 -2
BITMAP
ff
ff
ff
ff
ff
ff
ff
ff
ff
ff
ff
ff
ff
ff
ff
ff
ENDCHAR
STARTCHAR 20
ENCODING 20
SWIDTH 512 0
DWIDTH 20 0
BBX 8 16 0 -2
BITMAP
ff
ff
ff
ff
ff
ff
ff
ff
ff
ff
ff
ff
ff
ff
ff
ff
ENDCHAR
STARTCHAR 21
ENCODING 21
SWIDTH 512 0
DWIDTH 21 0
BBX 8 16 0 -2
BITMAP
ff
ff
ff
ff
ff
ff
ff
ff
ff
ff
ff
ff
ff
ff
ff
ff
ENDCHAR
STARTCHAR 22
ENCODING 22
SWIDTH 512 0
DWIDTH 22 0
BBX 8 16 0 -2
BITMAP
ff
ff
ff
ff
ff
ff
ff
ff
ff
ff
ff
ff
ff
ff
ff
ff
ENDCHAR
STARTCHAR 23
ENCODING 23
SWIDTH 512 0
DWIDTH 23 0
BBX 8 16 0 -2
BITMAP
ff
ff
ff
ff
ff
ff
ff
ff
ff
ff
ff
ff
ff
ff
ff
ff
ENDCHAR
STARTCHAR 24
ENCODING 24
SWIDTH 512 0
DWIDTH 24 0
BBX 8 16 0 -2
BITMAP
ff
ff
ff
ff
ff
ff
ff
ff
ff
ff
ff
ff
ff
ff
ff
ff
ENDCHAR
STARTCHAR 30
ENCODING 30
SWIDTH 512 0
DWIDTH 30 0
BBX 8 16 0 -2
BITMAP
ff
ff
ff
ff
ff
ff
ff
ff
ff
ff
ff
ff
ff
ff
ff
ff
ENDCHAR
STARTCHAR 31
ENCODING 31
SWIDTH 512 0
DWIDTH 31 0
BBX 8 16 0 -2
BITMAP
ff
ff
ff
ff
ff
ff
ff
ff
ff
ff
ff
ff
ff
ff
ff
ff
ENDCHAR
STARTCHAR 32
ENCODING 32
SWIDTH 512 0
DWIDTH 32 0
BBX 8 16 0 -2
BITMAP
ff
ff
ff
ff
ff
ff
ff
ff
ff
ff
ff
ff
ff
ff
ff
ff
ENDCHAR
STARTCHAR 33
ENCODING 33
SWIDTH 512 0
DWIDTH 33 0
BBX 8 16 0 -2
BITMAP
ff
ff
ff
ff
ff
ff
ff
ff
ff
ff
ff
ff
ff
ff
ff
ff
ENDCHAR
STARTCHAR 34
ENCODING 34
SWIDTH 512 0
DWIDTH 34 0
BBX 8 16 0 -2
BITMAP
ff
ff
ff
ff
ff
ff
ff
ff
ff
ff
ff
ff
ff
ff
ff
ff
ENDCHAR
STARTCHAR 40
ENCODING 40
SWIDTH 512 0
DWIDTH 40 0
BBX 8 16 0 -2
BITMAP
ff
ff
ff
ff
ff
ff
ff
ff
ff
ff
ff
ff
ff
ff
ff
ff
ENDCHAR
STARTCHAR 41
ENCODING 41
SWIDTH 512 0
DWIDTH 41 0
BBX 8 16 0 -2
BITMAP
ff
ff
ff
ff
ff
ff
ff
ff
ff
ff
ff
ff
ff
ff
ff
ff
ENDCHAR
STARTCHAR 42
ENCODING 42
SWIDTH 512 0
DWIDTH 42 0
BBX 8 16 0 -2
BITMAP
ff
ff
ff
ff
ff
ff
ff
ff
ff
ff
ff
ff
ff
ff
ff
ff
ENDCHAR
STARTCHAR 43
ENCODING 43
SWIDTH 512 0
DWIDTH 43 0
BBX 8 16 0 -2
BITMAP
ff
ff
ff
ff
ff
ff
ff
ff
ff
ff
ff
ff
ff
ff
ff
ff
ENDCHAR
STARTCHAR 44
ENCODING 44
SWIDTH 512 0
DWIDTH 44 0
BBX 8 16 0 -2
BITMAP
ff
ff
ff
ff
ff
ff
ff
ff
ff
ff
ff
ff
ff
ff
ff
ff
ENDCHAR
STARTCHAR 50
ENCODING 50
SWIDTH 512 0
DWIDTH 50 0
BBX 8 16 0 -2
BITMAP
ff
ff
ff
ff
ff
ff
ff
ff
ff
ff
ff
ff
ff
ff
ff
ff
ENDCHAR
STARTCHAR 51
ENCODING 51
SWIDTH 512 0
DWIDTH 51 0
BBX 8 16 0 -2
BITMAP
ff
ff
ff
ff
ff
ff
ff
ff
ff
ff
ff
ff
ff
ff
ff
ff
ENDCHAR
STARTCHAR 52
ENCODING 52
SWIDTH 512 0
DWIDTH 52 0
BBX 8 16 0 -2
BITMAP
ff
ff
ff
ff
ff
ff
ff
ff
ff
ff
ff
ff
ff
ff
ff
ff
ENDCHAR
STARTCHAR 53
ENCODING 53
SWIDTH 512 0
DWIDTH 53 0
BBX 8 16 0 -2
BITMAP
ff
ff
ff
ff
ff
ff
ff
ff
ff
ff
ff
ff
ff
ff
ff
ff
ENDCHAR
STARTCHAR 54
ENCODING 54
SWIDTH 512 0
DWIDTH 54 0
BBX 8 16 0 -2
BITMAP
ff
ff
ff
ff
ff
ff
ff
ff
ff
ff
ff
ff
ff
ff
ff
ff
ENDCHAR
ENDFONT
